<svg width="61" height="56" viewBox="0 0 61 56" fill="none" xmlns="http://www.w3.org/2000/svg">
<path fill-rule="evenodd" clip-rule="evenodd" d="M49.819 42.3782C49.6877 43.2693 49.3553 44.1171 48.8482 44.8547C48.341 45.5924 47.6734 46.1995 46.8973 46.6281C46.6823 46.7499 46.4571 46.8521 46.2247 46.9335C46.52 50.9325 40.2994 52.3867 36.947 51.4342L38.1926 55.8841L34.9897 56.0004L29.3847 47.8024C27.495 48.3477 25.2637 48.6095 23.8224 46.2464C23.6914 46.0293 23.5726 45.8047 23.4665 45.5738C23.0999 45.6502 22.7268 45.6891 22.3526 45.6901C21.285 45.6901 19.5056 45.3629 18.6017 44.7231C17.8851 44.2378 17.3166 43.5561 16.9611 42.7563C15.0358 43.0253 13.4024 42.5636 12.3347 41.4221C10.9824 40.0006 10.5981 37.6521 11.3027 35.1326C12.2315 31.7698 15.0572 27.9816 20.6729 26.5601C21.16 25.9414 21.7431 25.4085 22.3989 24.9823C25.9256 22.6738 31.6516 22.4738 35.9968 24.666C37.6814 24.3455 39.4203 24.5155 41.0147 25.1568C44.1392 26.3529 46.4097 28.8541 46.8368 31.3954C47.6827 31.8431 48.3752 32.543 48.8225 33.4021C49.7585 35.1981 49.8902 36.9977 49.2603 38.4519C49.8535 39.6658 50.0496 41.0422 49.819 42.3782ZM47.5129 40.4877C47.0154 40.756 46.4617 40.8964 45.899 40.8964C45.3364 40.8964 44.7827 40.756 44.2851 40.4877L44.5449 38.7245C45.641 38.8336 46.5343 38.4846 47.0005 37.7684C47.5236 36.9722 47.4418 35.7907 46.7798 34.5219C46.0396 33.1004 44.4417 32.875 43.5556 32.8641H43.4987C41.278 32.8641 39.0146 34.1547 38.1 35.8379L36.7691 35.1872C37.0308 34.3201 37.4754 33.5221 38.0716 32.8496C37.5583 32.4044 37.1703 31.8275 36.9476 31.1783C36.725 30.5291 36.6756 29.831 36.8047 29.1559L38.1178 29.0323C38.178 29.5783 38.399 30.0928 38.7517 30.5077C39.1044 30.9225 39.5723 31.2181 40.0929 31.3554C41.1883 30.8559 42.3777 30.6077 43.577 30.6283C43.7478 30.6283 43.9115 30.6464 44.0787 30.6573C43.2278 29.1163 41.8794 27.9251 40.2638 27.2872C36.3207 25.724 33.6623 28.1488 33.0538 28.985C31.5875 30.9918 32.5271 32.8895 33.2424 34.122L32.068 35.2126C31.0452 34.3088 30.3589 33.0723 30.1249 31.7116C28.6196 32.1733 26.5982 32.0752 25.4665 30.1011L26.5341 29.3522C27.7334 30.2683 29.6374 30.1884 30.5413 29.0577C30.7567 28.5578 31.029 28.0856 31.3527 27.6508C31.8666 26.9575 32.4866 26.3535 33.189 25.8621C30.2388 25.0405 26.0715 25.175 23.5519 26.8255C22.871 27.2294 22.3106 27.815 21.9307 28.5195C21.5508 29.224 21.3657 30.0208 21.3953 30.8246C21.3953 32.1225 22.3918 34.1729 23.7334 34.4928L22.954 36.0379C22.098 35.8354 21.3209 35.3758 20.7227 34.7182L19.5661 36.2233L18.4095 35.6489L19.5412 32.6242C19.3563 32.0367 19.2615 31.4235 19.2601 30.8064C19.2629 30.3178 19.313 29.8307 19.4095 29.3522C15.8508 30.8537 14.0928 33.3513 13.4486 35.6343C12.954 37.3903 13.1461 38.9754 13.9575 39.8261C14.6017 40.5023 15.5874 40.6622 16.5163 40.6004L19.0074 38.6191L19.8259 39.3244L19.0857 41.8038C19.4736 43.0653 20.7441 43.7161 23.0608 43.258C23.1809 42.2542 23.5687 41.3036 24.1818 40.5096C24.6314 39.8486 25.2262 39.3048 25.9185 38.9208L27.1356 35.5725L28.3527 35.518L28.221 38.2628C30.2673 38.0483 32.5555 38.4737 34.6872 38.1465L35.0787 39.6007C31.9541 41.0767 28.7548 38.67 25.8544 41.8438C24.8117 42.9853 25.2103 43.9778 25.8544 44.9776C26.7832 46.4063 28.527 45.5484 30.31 44.9776C33.011 44.1342 34.9719 43.5234 38.6695 43.8324C37.7869 42.1201 37.8723 40.0515 39.0538 37.7757L40.794 38.4773C39.5734 41.353 40.7157 43.0181 41.5058 43.7524C42.7264 44.8867 44.5627 45.2284 45.7763 44.545C46.241 44.2828 46.6407 43.9149 46.9442 43.4699C47.2478 43.025 47.4471 42.5145 47.5272 41.9783C47.6072 41.4842 47.6012 40.9796 47.5094 40.4877H47.5129Z" fill="black"/>
<path d="M33.5558 0.575886C33.6685 0.609304 33.7812 0.642722 33.8974 0.677153C34.2723 0.788401 34.647 0.900231 35.0218 1.01206C35.292 1.0924 35.5623 1.17269 35.8326 1.25295C36.5654 1.47065 37.298 1.68886 38.0306 1.90716C38.7985 2.1359 39.5666 2.36419 40.3347 2.59253C41.6301 2.97772 42.9254 3.3632 44.2207 3.7489C45.5731 4.15162 46.9255 4.55413 48.2781 4.95638C48.4045 4.99399 48.4045 4.99399 48.5335 5.03235C48.8729 5.13329 49.2123 5.23423 49.5517 5.33517C51.1011 5.79596 52.6505 6.25692 54.1998 6.71791C54.4365 6.78832 54.4365 6.78832 54.6779 6.86016C55.5844 7.12988 56.4909 7.39968 57.3973 7.66958C57.6727 7.75157 57.9481 7.83354 58.2235 7.9155C58.5987 8.02715 58.9739 8.13888 59.3491 8.25063C59.4592 8.28337 59.5692 8.31611 59.6827 8.34984C60.0799 8.46823 60.476 8.58758 60.8696 8.71774C60.8696 8.80255 60.8696 8.88736 60.8696 8.97474C60.7316 9.01202 60.7316 9.01202 60.5908 9.05004C60.4718 9.0835 60.3527 9.11696 60.2301 9.15144C60.1114 9.18424 59.9927 9.21703 59.8704 9.25083C59.5528 9.33026 59.5528 9.33026 59.445 9.61726C59.1677 9.64951 58.8903 9.68068 58.6123 9.70554C58.0724 9.77077 57.5617 9.92323 57.0409 10.0751C56.935 10.1051 56.8291 10.1352 56.7199 10.1662C56.4624 10.2394 56.2053 10.3137 55.9482 10.3883C55.9482 10.4731 55.9482 10.5579 55.9482 10.6453C55.8627 10.6453 55.7772 10.6453 55.6892 10.6453C55.6892 12.4263 55.6892 14.2074 55.6892 16.0424C55.7747 16.0848 55.8601 16.1272 55.9482 16.1709C57.2012 17.3488 57.2012 17.3488 57.2838 18.3153C57.275 19.0981 56.8659 19.8408 56.3367 20.4115C56.2085 20.4539 56.0803 20.4963 55.9482 20.54C56.4221 22.6654 57.0205 24.757 57.6073 26.8539C57.7395 27.3267 57.8709 27.7997 58.0021 28.2728C58.043 28.4179 58.0839 28.563 58.126 28.7125C58.1632 28.8469 58.2004 28.9813 58.2388 29.1198C58.2717 29.2376 58.3047 29.3554 58.3386 29.4768C58.4089 29.7923 58.4089 29.7923 58.4089 30.3063C58.067 30.3487 57.7251 30.3911 57.3728 30.4348C57.3247 30.3288 57.2766 30.2228 57.2271 30.1135C56.9373 29.5768 56.585 29.1138 56.2072 28.6357C56.1217 28.7205 56.0363 28.8054 55.9482 28.8927C55.9482 28.6383 55.9482 28.3839 55.9482 28.1217C55.931 28.2687 55.9138 28.4156 55.8961 28.567C55.873 28.7586 55.8499 28.9501 55.8268 29.1417C55.8155 29.2387 55.8042 29.3357 55.7926 29.4356C55.7038 30.1632 55.7038 30.1632 55.5597 30.3063C55.3196 30.3175 55.0791 30.32 54.8388 30.3188C54.6931 30.3184 54.5474 30.318 54.3974 30.3176C54.244 30.3165 54.0907 30.3154 53.9327 30.3143C53.7789 30.3137 53.625 30.3132 53.4665 30.3126C53.085 30.311 52.7035 30.3089 52.3219 30.3063C52.128 29.9214 52.2492 29.6493 52.3323 29.2302C52.3487 29.1462 52.3651 29.0621 52.382 28.9756C52.4178 28.7928 52.454 28.61 52.4905 28.4274C52.5484 28.138 52.6053 27.8484 52.6619 27.5587C52.7823 26.943 52.9042 26.3277 53.0261 25.7123C53.167 25.0009 53.3073 24.2895 53.4464 23.5778C53.5023 23.2931 53.5592 23.0086 53.616 22.7241C53.6505 22.5483 53.685 22.3725 53.7194 22.1966C53.7497 22.0439 53.78 21.8912 53.8113 21.7338C53.8734 21.3282 53.8882 20.9495 53.876 20.54C53.7478 20.4976 53.6196 20.4552 53.4875 20.4115C53.2841 20.1595 53.2841 20.1595 53.0828 19.8493C52.9821 19.6968 52.9821 19.6968 52.8794 19.5411C52.5543 18.9906 52.5174 18.4656 52.5809 17.8415C52.8016 17.1975 53.1632 16.8697 53.6914 16.4661C53.7523 16.4111 53.8133 16.3561 53.876 16.2994C53.876 16.2146 53.876 16.1298 53.876 16.0424C53.9615 16.0424 54.047 16.0424 54.1351 16.0424C54.1351 14.431 54.1351 12.8196 54.1351 11.1593C53.0724 11.2547 53.0724 11.2547 52.0747 11.4793C51.9382 11.5185 51.8016 11.5576 51.6609 11.5979C51.5221 11.6388 51.3833 11.6798 51.2403 11.722C51.0437 11.7786 51.0437 11.7786 50.8431 11.8364C50.359 11.9763 49.8754 12.118 49.3918 12.2596C48.3073 12.575 47.2228 12.8904 46.1055 13.2154C46.0627 16.8623 46.02 20.5092 45.9759 24.2666C45.6768 24.1818 45.3776 24.097 45.0694 24.0096C45.0266 23.9248 44.9839 23.84 44.9399 23.7526C44.8384 23.7129 44.7369 23.6731 44.6323 23.6321C44.2869 23.4934 44.1508 23.3764 43.9038 23.1101C43.4618 22.7028 43.0721 22.6527 42.4792 22.5961C42.4792 22.5113 42.4792 22.4265 42.4792 22.3391C42.1965 22.2301 41.9132 22.1234 41.6293 22.0178C41.4715 21.9582 41.3137 21.8986 41.1512 21.8371C40.6606 21.695 40.2673 21.6706 39.7595 21.6966C39.7595 21.6118 39.7595 21.5269 39.7595 21.4396C38.2978 21.118 36.8475 20.8189 35.3562 20.6685C35.2449 20.6573 35.1337 20.646 35.019 20.6344C33.6702 20.5139 32.3222 20.5142 30.969 20.5159C30.8451 20.5161 30.7212 20.5162 30.5935 20.5163C26.9139 20.5241 23.2359 20.7385 19.815 22.2106C19.815 22.2954 19.815 22.3802 19.815 22.4676C19.5586 22.51 19.3021 22.5524 19.0379 22.5961C19.0379 22.6809 19.0379 22.7657 19.0379 22.8531C18.6543 23.1322 18.3247 23.346 17.8723 23.4956C17.8296 23.5804 17.7869 23.6652 17.7428 23.7526C17.6627 23.7659 17.5826 23.7791 17.5 23.7928C17.1025 23.9204 17.0208 24.1667 16.8363 24.5236C16.6636 24.438 16.4909 24.3523 16.3182 24.2666C16.3182 20.6621 16.3182 17.0576 16.3182 13.3439C15.3576 12.8673 14.3085 12.6233 13.2747 12.356C13.1213 12.3148 12.9679 12.2737 12.8098 12.2312C12.0147 12.025 11.3125 11.8768 10.4903 11.9303C10.4903 11.8455 10.4903 11.7607 10.4903 11.6733C5.29759 10.3375 5.29759 10.3375 0 8.97474C0 8.88993 0 8.80512 0 8.71774C1.74563 8.22763 3.49132 7.73773 5.23705 7.24798C5.36984 7.21073 5.50264 7.17347 5.63945 7.13509C8.75881 6.26001 11.8785 5.38596 14.9993 4.51628C15.1227 4.48191 15.246 4.44754 15.373 4.41213C16.5884 4.0734 17.8038 3.73496 19.0196 3.39761C19.6072 3.23454 20.1947 3.07132 20.7823 2.90799C20.8958 2.87643 21.0093 2.84487 21.1263 2.81236C22.6077 2.40021 24.0866 1.98028 25.5632 1.55134C25.8446 1.46971 26.1261 1.38844 26.4076 1.30731C26.4975 1.2814 26.5874 1.25549 26.68 1.2288C26.857 1.17781 27.034 1.12684 27.211 1.07589C27.7861 0.910079 28.3599 0.740432 28.9335 0.57005C29.2235 0.48634 29.5134 0.402764 29.8034 0.31935C29.9307 0.280452 30.058 0.241554 30.1892 0.201478C30.308 0.167956 30.4267 0.134434 30.5491 0.0998967C30.6498 0.0702074 30.7505 0.0405181 30.8542 0.00992915C31.7575 -0.0668807 32.6989 0.319125 33.5558 0.575886ZM55.4302 10.3883C55.4302 12.2966 55.4302 14.2048 55.4302 16.1709C55.4729 16.1709 55.5156 16.1709 55.5597 16.1709C55.5597 14.2627 55.5597 12.3544 55.5597 10.3883C55.5169 10.3883 55.4742 10.3883 55.4302 10.3883ZM54.2646 10.7738C54.2646 12.5548 54.2646 14.3359 54.2646 16.1709C54.3073 16.1709 54.35 16.1709 54.3941 16.1709C54.3941 14.3899 54.3941 12.6088 54.3941 10.7738C54.3513 10.7738 54.3086 10.7738 54.2646 10.7738Z" fill="black"/>
</svg>
