<svg width="50" height="50" viewBox="0 0 50 50" fill="none" xmlns="http://www.w3.org/2000/svg">
<path d="M43.7498 22.8646V16.6667C43.7498 15.5616 43.3108 14.5018 42.5294 13.7204C41.748 12.939 40.6882 12.5 39.5832 12.5H27.0832V9.76666C27.7186 9.19583 28.1248 8.375 28.1248 7.45416C28.1248 6.62536 27.7956 5.83051 27.2095 5.24445C26.6235 4.6584 25.8286 4.32916 24.9998 4.32916C24.171 4.32916 23.3762 4.6584 22.7901 5.24445C22.2041 5.83051 21.8748 6.62536 21.8748 7.45416C21.8748 8.375 22.2811 9.19583 22.9165 9.76666V12.5H10.4165C9.31143 12.5 8.25163 12.939 7.47023 13.7204C6.68882 14.5018 6.24984 15.5616 6.24984 16.6667V22.9125L6.09984 22.9229C5.57478 22.9608 5.08354 23.1961 4.72487 23.5814C4.36621 23.9667 4.16672 24.4736 4.1665 25V29.1667C4.1665 29.7192 4.386 30.2491 4.7767 30.6398C5.1674 31.0305 5.6973 31.25 6.24984 31.25V41.6667C6.24984 42.7717 6.68882 43.8315 7.47023 44.6129C8.25163 45.3943 9.31143 45.8333 10.4165 45.8333H39.5832C40.6882 45.8333 41.748 45.3943 42.5294 44.6129C43.3108 43.8315 43.7498 42.7717 43.7498 41.6667V31.25C44.3024 31.25 44.8323 31.0305 45.223 30.6398C45.6137 30.2491 45.8332 29.7192 45.8332 29.1667V25.1292C45.8576 24.8058 45.8063 24.4812 45.6832 24.1812C45.2623 23.1646 44.3603 22.9208 43.7498 22.8646ZM14.5832 25C14.5832 22.7 15.9832 20.8333 17.7082 20.8333C19.4332 20.8333 20.8332 22.7 20.8332 25C20.8332 27.3 19.4332 29.1667 17.7082 29.1667C15.9832 29.1667 14.5832 27.3 14.5832 25ZM33.329 37.5C31.2436 37.4937 16.6665 37.5 16.6665 37.5V33.3333C16.6665 33.3333 31.2519 33.3292 33.3373 33.3333L33.329 37.5ZM32.2915 29.1667C30.5665 29.1667 29.1665 27.3 29.1665 25C29.1665 22.7 30.5665 20.8333 32.2915 20.8333C34.0165 20.8333 35.4165 22.7 35.4165 25C35.4165 27.3 34.0165 29.1667 32.2915 29.1667Z" fill="black"/>
</svg>
