<svg width="52" height="35" viewBox="0 0 52 35" fill="none" xmlns="http://www.w3.org/2000/svg">
<path d="M49.5996 16.7197C47.1833 7.0432 44.6165 1.90061 39.4972 0.441438C38.3819 0.124141 37.4326 0 36.5563 0C33.4043 0 31.1955 1.60595 25.5829 1.60595C19.9667 1.60595 17.7592 0.00021875 14.6115 0C13.7361 0 12.7884 0.124141 11.6739 0.441438C6.54933 1.90061 3.98266 7.0432 1.57063 16.7197C-0.848484 26.3965 -0.409113 33.3844 2.44766 34.6888C2.91261 34.9016 3.38773 35 3.87005 35C6.34775 35 9.02544 32.3927 11.5975 29.3074C14.5275 25.7959 15.2653 25.7031 24.1925 25.7031H26.9727C35.898 25.7031 36.6382 25.7957 39.5682 29.3074C42.1409 32.3925 44.8185 34.9953 47.2963 34.9953C47.779 34.9953 48.2539 34.8992 48.7191 34.6865C51.5749 33.3821 52.0143 26.3965 49.5996 16.7197ZM11.7905 18.3349C9.31896 18.3349 7.30953 16.3926 7.30953 14.0011C7.30953 11.6123 9.31896 9.66514 11.7905 9.66514C14.2637 9.66514 16.2732 11.6123 16.2732 14.0011C16.2732 16.3926 14.2639 18.3349 11.7905 18.3349ZM31.531 16.2028C30.2681 16.2028 29.2381 15.2164 29.2381 14.0036C29.2381 12.7906 30.2682 11.8047 31.531 11.8047C32.8023 11.8047 33.8322 12.7906 33.8322 14.0036C33.8323 15.2164 32.8023 16.2028 31.531 16.2028ZM36.5463 21C35.2833 21 34.256 20.021 34.256 18.8108C34.256 17.5905 35.2833 16.6117 36.5463 16.6117C37.8193 16.6117 38.8474 17.5905 38.8474 18.8108C38.8475 20.021 37.8193 21 36.5463 21ZM36.5463 11.3958C35.2833 11.3958 34.256 10.4122 34.256 9.1992C34.256 7.9858 35.2833 7 36.5463 7C37.8193 7 38.8474 7.98591 38.8474 9.1992C38.8475 10.4122 37.8193 11.3958 36.5463 11.3958ZM41.5669 16.2028C40.2986 16.2028 39.2711 15.2164 39.2711 14.0036C39.2711 12.7906 40.2985 11.8047 41.5669 11.8047C42.83 11.8047 43.8572 12.7906 43.8572 14.0036C43.8572 15.2164 42.83 16.2028 41.5669 16.2028Z" fill="black"/>
</svg>
