<svg width="117" height="108" viewBox="0 0 117 108" fill="none" xmlns="http://www.w3.org/2000/svg">
<path fill-rule="evenodd" clip-rule="evenodd" d="M95.4552 81.7287C95.2036 83.4472 94.5667 85.0823 93.595 86.5049C92.6234 87.9275 91.3442 89.0983 89.857 89.925C89.4452 90.1599 89.0136 90.3569 88.5683 90.5139C89.1343 98.2264 77.2152 101.031 70.792 99.1939L73.1785 107.776L67.0417 108L56.3022 92.1896C52.6815 93.2413 48.4062 93.7461 45.6446 89.1888C45.3937 88.7702 45.1661 88.3369 44.9627 87.8917C44.2603 88.0389 43.5454 88.114 42.8285 88.1161C40.7829 88.1161 37.3735 87.485 35.6416 86.251C34.2685 85.315 33.1792 84.0004 32.4982 82.4579C28.8092 82.9768 25.6795 82.0863 23.6339 79.8848C21.0427 77.1433 20.3063 72.614 21.6564 67.7552C23.4361 61.2697 28.8502 53.9639 39.6101 51.2225C40.5435 50.0293 41.6606 49.0014 42.9171 48.1796C49.6745 43.7274 60.6457 43.3418 68.9714 47.5696C72.1991 46.9513 75.531 47.2793 78.5857 48.5161C84.5725 50.8228 88.9229 55.6466 89.7411 60.5475C91.3619 61.4111 92.6888 62.7609 93.546 64.4178C95.3393 67.8814 95.5916 71.352 94.3847 74.1565C95.5213 76.4976 95.897 79.1521 95.4552 81.7287ZM91.0367 78.0829C90.0834 78.6003 89.0224 78.8709 87.9444 78.8709C86.8664 78.8709 85.8054 78.6003 84.8521 78.0829L85.3499 74.6824C87.45 74.8927 89.1615 74.2196 90.0548 72.8384C91.0571 71.3029 90.9003 69.0242 89.632 66.5773C88.2137 63.8359 85.1521 63.4011 83.4543 63.3801H83.3452C79.0903 63.3801 74.7536 65.8691 73.0012 69.1154L70.451 67.8604C70.9524 66.1881 71.8043 64.6492 72.9467 63.3521C71.9631 62.4935 71.2198 61.381 70.7931 60.129C70.3665 58.877 70.272 57.5306 70.5192 56.2286L73.0353 55.9902C73.1505 57.0433 73.574 58.0355 74.2498 58.8356C74.9256 59.6357 75.8221 60.2057 76.8197 60.4704C78.9185 59.5071 81.1973 59.0285 83.4952 59.0682C83.8225 59.0682 84.1362 59.1032 84.4566 59.1242C82.8263 56.1523 80.2427 53.8549 77.147 52.6248C69.5919 49.6099 64.4983 54.2864 63.3323 55.899C60.523 59.7693 62.3231 63.4292 63.6937 65.806L61.4435 67.9094C59.4838 66.1664 58.1688 63.7817 57.7205 61.1575C54.8362 62.048 50.9632 61.8587 48.7948 58.0515L50.8405 56.6072C53.1384 58.374 56.7864 58.2198 58.5183 56.0393C58.931 55.0751 59.4528 54.1644 60.073 53.3259C61.0576 51.9888 62.2457 50.824 63.5914 49.8763C57.9387 48.2918 49.954 48.5512 45.1264 51.7343C43.8218 52.5133 42.748 53.6426 42.0201 55.0012C41.2922 56.36 40.9375 57.8967 40.9943 59.4468C40.9943 61.9498 42.9035 65.9042 45.4741 66.5212L43.9808 69.501C42.3407 69.1104 40.8517 68.224 39.7055 66.9559L37.4894 69.8586L35.2734 68.7508L37.4417 62.9174C37.0874 61.7843 36.9058 60.6018 36.903 59.4117C36.9085 58.4695 37.0044 57.5301 37.1894 56.6072C30.3707 59.5029 27.0023 64.3196 25.7681 68.7227C24.8203 72.1092 25.1885 75.1661 26.7432 76.8068C27.9774 78.1109 29.8661 78.4194 31.6458 78.3002L36.4189 74.479L37.9872 75.8392L36.5689 80.621C37.3122 83.0539 39.7464 84.3089 44.1854 83.4255C44.4155 81.4897 45.1586 79.6562 46.3333 78.1249C47.1947 76.8503 48.3343 75.8014 49.6608 75.061L51.9928 68.6036L54.3248 68.4984L54.0725 73.7919C57.9933 73.3783 62.3777 74.1986 66.4621 73.5676L67.2121 76.3721C61.2253 79.2187 55.0953 74.5772 49.5381 80.6981C47.5402 82.8996 48.3039 84.8137 49.5381 86.7418C51.3178 89.4973 54.6589 87.8426 58.0751 86.7418C63.2505 85.1152 67.0076 83.9373 74.0922 84.5333C72.4012 81.2309 72.5648 77.2415 74.8286 72.8524L78.163 74.2056C75.8242 79.7515 78.013 82.9627 79.5267 84.379C81.8655 86.5666 85.384 87.2256 87.7091 85.9075C88.5997 85.402 89.3654 84.6924 89.947 83.8342C90.5287 82.9761 90.9105 81.9917 91.0639 80.9575C91.2174 80.0047 91.2058 79.0315 91.0299 78.0829H91.0367Z" fill="black" fill-opacity="0.05"/>
<path d="M64.2942 1.11064C64.5102 1.17509 64.7262 1.23954 64.9487 1.30594C65.6671 1.52049 66.3851 1.73616 67.1031 1.95183C67.621 2.10676 68.1389 2.26162 68.6568 2.41641C70.0608 2.83626 71.4645 3.25708 72.8681 3.67808C74.3396 4.11924 75.8112 4.55951 77.2829 4.99988C79.7649 5.74274 82.2468 6.48618 84.7286 7.23003C87.3199 8.0067 89.9112 8.78296 92.5028 9.55873C92.745 9.63125 92.745 9.63125 92.9922 9.70524C93.6425 9.89991 94.2928 10.0946 94.9431 10.2892C97.9118 11.1779 100.88 12.0669 103.849 12.956C104.302 13.0918 104.302 13.0918 104.765 13.2303C106.502 13.7505 108.239 14.2708 109.976 14.7913C110.503 14.9494 111.031 15.1075 111.559 15.2656C112.278 15.4809 112.996 15.6964 113.715 15.9119C113.926 15.9751 114.137 16.0382 114.354 16.1033C115.116 16.3316 115.875 16.5618 116.629 16.8128C116.629 16.9763 116.629 17.1399 116.629 17.3084C116.364 17.3803 116.364 17.3803 116.094 17.4536C115.866 17.5182 115.638 17.5827 115.403 17.6492C115.176 17.7124 114.948 17.7757 114.714 17.8409C114.106 17.9941 114.106 17.9941 113.899 18.5476C113.368 18.6098 112.836 18.6699 112.304 18.7178C111.269 18.8436 110.29 19.1377 109.293 19.4305C109.09 19.4884 108.887 19.5464 108.678 19.6062C108.184 19.7473 107.692 19.8907 107.199 20.0345C107.199 20.1981 107.199 20.3617 107.199 20.5302C107.035 20.5302 106.871 20.5302 106.703 20.5302C106.703 23.9651 106.703 27.4 106.703 30.9389C106.866 31.0207 107.03 31.1025 107.199 31.1868C109.6 33.4583 109.6 33.4583 109.758 35.3224C109.741 36.832 108.957 38.2644 107.943 39.3651C107.698 39.4469 107.452 39.5286 107.199 39.6129C108.107 43.7118 109.254 47.7457 110.378 51.7895C110.631 52.7014 110.883 53.6138 111.134 54.5261C111.213 54.8059 111.291 55.0858 111.372 55.3741C111.443 55.6333 111.514 55.8925 111.588 56.1596C111.651 56.3868 111.714 56.614 111.779 56.8482C111.914 57.4565 111.914 57.4565 111.914 58.4478C111.259 58.5296 110.604 58.6114 109.929 58.6956C109.836 58.4912 109.744 58.2867 109.649 58.0761C109.094 57.0409 108.419 56.1479 107.695 55.226C107.532 55.3896 107.368 55.5532 107.199 55.7217C107.199 55.231 107.199 54.7403 107.199 54.2347C107.166 54.5181 107.133 54.8015 107.099 55.0934C107.055 55.4629 107.011 55.8324 106.966 56.2019C106.945 56.3889 106.923 56.576 106.901 56.7687C106.731 58.1719 106.731 58.1719 106.455 58.4478C105.995 58.4695 105.534 58.4743 105.073 58.472C104.794 58.4712 104.515 58.4704 104.228 58.4696C103.934 58.4675 103.64 58.4654 103.337 58.4633C103.042 58.4622 102.748 58.461 102.444 58.4599C101.713 58.457 100.982 58.4529 100.251 58.4478C99.8793 57.7056 100.112 57.1808 100.271 56.3725C100.302 56.2104 100.334 56.0484 100.366 55.8814C100.435 55.5289 100.504 55.1765 100.574 54.8242C100.685 54.2661 100.794 53.7075 100.902 53.1489C101.133 51.9616 101.367 50.7747 101.6 49.588C101.87 48.2161 102.139 46.844 102.405 45.4715C102.513 44.9224 102.622 44.3737 102.73 43.825C102.797 43.486 102.863 43.1469 102.929 42.8078C102.987 42.5132 103.045 42.2186 103.105 41.9151C103.224 41.1329 103.252 40.4026 103.229 39.6129C102.983 39.5311 102.737 39.4493 102.484 39.3651C102.095 38.8791 102.095 38.8791 101.709 38.2808C101.516 37.9866 101.516 37.9866 101.319 37.6864C100.696 36.6248 100.626 35.6122 100.747 34.4085C101.17 33.1666 101.863 32.5345 102.875 31.756C102.992 31.6499 103.108 31.5439 103.229 31.4346C103.229 31.271 103.229 31.1075 103.229 30.9389C103.392 30.9389 103.556 30.9389 103.725 30.9389C103.725 27.8312 103.725 24.7234 103.725 21.5215C101.689 21.7055 101.689 21.7055 99.7773 22.1387C99.5156 22.2141 99.2539 22.2896 98.9843 22.3673C98.7184 22.4463 98.4525 22.5253 98.1785 22.6067C97.8018 22.716 97.8018 22.716 97.4174 22.8274C96.4898 23.0971 95.5633 23.3705 94.6366 23.6435C92.5587 24.2518 90.4808 24.86 88.3399 25.4867C88.258 32.5201 88.1761 39.5534 88.0918 46.7999C87.5186 46.6363 86.9453 46.4728 86.3548 46.3042C86.2729 46.1407 86.191 45.9771 86.1066 45.8086C85.9121 45.7319 85.7176 45.6553 85.5173 45.5763C84.8555 45.3087 84.5946 45.0831 84.1214 44.5695C83.2745 43.784 82.5279 43.6872 81.3918 43.5781C81.3918 43.4146 81.3918 43.251 81.3918 43.0825C80.8502 42.8724 80.3074 42.6666 79.7634 42.4629C79.4611 42.3479 79.1588 42.2329 78.8474 42.1144C77.9074 41.8403 77.1537 41.7933 76.1808 41.8434C76.1808 41.6798 76.1808 41.5162 76.1808 41.3477C73.3802 40.7275 70.6014 40.1507 67.7438 39.8607C67.5307 39.839 67.3175 39.8173 67.0979 39.795C64.5134 39.5624 61.9306 39.5632 59.3379 39.5664C59.1004 39.5667 58.863 39.5669 58.6184 39.5671C51.5681 39.5821 44.5208 39.9957 37.9663 42.8347C37.9663 42.9982 37.9663 43.1618 37.9663 43.3303C37.475 43.4121 36.9837 43.4939 36.4774 43.5781C36.4774 43.7417 36.4774 43.9053 36.4774 44.0738C35.7425 44.6121 35.1109 45.0244 34.2441 45.3129C34.1622 45.4765 34.0803 45.6401 33.996 45.8086C33.8424 45.8341 33.6889 45.8597 33.5307 45.886C32.7692 46.1321 32.6125 46.6071 32.259 47.2956C31.9281 47.1303 31.5972 46.9651 31.2664 46.7999C31.2664 39.8483 31.2664 32.8968 31.2664 25.7346C29.4258 24.8154 27.4157 24.3449 25.4349 23.8294C25.141 23.75 24.847 23.6706 24.5441 23.5888C23.0207 23.1911 21.6751 22.9053 20.0998 23.0085C20.0998 22.8449 20.0998 22.6813 20.0998 22.5128C10.1504 19.9366 10.1504 19.9366 0 17.3084C0 17.1449 0 16.9813 0 16.8128C3.3447 15.8676 6.68951 14.9228 10.0344 13.9782C10.2888 13.9064 10.5433 13.8345 10.8054 13.7605C16.7822 12.0729 22.7596 10.3872 28.7394 8.70997C28.9756 8.64369 29.2119 8.5774 29.4553 8.50911C31.784 7.85585 34.1129 7.20312 36.4423 6.55252C37.5681 6.23804 38.6939 5.92325 39.8197 5.60826C40.0372 5.5474 40.2547 5.48654 40.4788 5.42384C43.3173 4.62898 46.151 3.8191 48.9802 2.99187C49.5193 2.83445 50.0587 2.6777 50.5981 2.52123C50.7703 2.47127 50.9426 2.42131 51.12 2.36984C51.4592 2.2715 51.7983 2.1732 52.1374 2.07493C53.2392 1.75515 54.3386 1.42798 55.4378 1.09938C55.9933 0.937941 56.5489 0.776759 57.1046 0.615889C57.3485 0.540872 57.5924 0.465855 57.8438 0.388565C58.0713 0.323915 58.2989 0.259266 58.5333 0.192658C58.7263 0.1354 58.9192 0.0781421 59.118 0.0191491C60.8486 -0.128984 62.6523 0.615454 64.2942 1.11064ZM106.206 20.0345C106.206 23.7148 106.206 27.395 106.206 31.1868C106.288 31.1868 106.37 31.1868 106.455 31.1868C106.455 27.5065 106.455 23.8263 106.455 20.0345C106.373 20.0345 106.291 20.0345 106.206 20.0345ZM103.973 20.778C103.973 24.2129 103.973 27.6478 103.973 31.1868C104.055 31.1868 104.137 31.1868 104.221 31.1868C104.221 27.7519 104.221 24.317 104.221 20.778C104.139 20.778 104.057 20.778 103.973 20.778Z" fill="black" fill-opacity="0.05"/>
</svg>
