<svg width="50" height="45" viewBox="0 0 50 45" fill="none" xmlns="http://www.w3.org/2000/svg">
<path fill-rule="evenodd" clip-rule="evenodd" d="M40.9227 33.8103C40.8149 34.5423 40.5418 35.2387 40.1253 35.8446C39.7087 36.4505 39.1603 36.9492 38.5227 37.3013C38.3462 37.4013 38.1611 37.4853 37.9702 37.5522C38.2129 40.8371 33.103 42.0316 30.3493 41.2492L31.3725 44.9044L28.7415 45L24.1374 38.2659C22.5852 38.7138 20.7523 38.9288 19.5684 36.9877C19.4608 36.8095 19.3632 36.6249 19.276 36.4353C18.9749 36.498 18.6684 36.5299 18.3611 36.5308C17.4841 36.5308 16.0225 36.2621 15.2799 35.7365C14.6913 35.3378 14.2243 34.7779 13.9323 34.1209C12.3508 34.3419 11.0091 33.9626 10.1321 33.0249C9.02126 31.8573 8.70555 29.9281 9.28435 27.8586C10.0473 25.0963 12.3684 21.9846 16.9813 20.8169C17.3814 20.3087 17.8604 19.8709 18.3991 19.5209C21.296 17.6245 25.9995 17.4603 29.5688 19.261C30.9526 18.9977 32.381 19.1374 33.6906 19.6642C36.2572 20.6467 38.1223 22.7013 38.473 24.7887C39.1679 25.1565 39.7368 25.7314 40.1042 26.4371C40.873 27.9124 40.9812 29.3906 40.4638 30.5851C40.9511 31.5822 41.1122 32.7129 40.9227 33.8103ZM39.0285 32.2574C38.6198 32.4778 38.1649 32.5931 37.7028 32.5931C37.2406 32.5931 36.7857 32.4778 36.3771 32.2574L36.5905 30.8091C37.4908 30.8987 38.2246 30.612 38.6075 30.0237C39.0372 29.3697 38.97 28.3991 38.4263 27.3569C37.8182 26.1893 36.5057 26.0041 35.7778 25.9952H35.731C33.9069 25.9952 32.0477 27.0553 31.2965 28.438L30.2032 27.9034C30.4181 27.1911 30.7833 26.5357 31.2731 25.9832C30.8514 25.6175 30.5327 25.1437 30.3498 24.6104C30.1669 24.0771 30.1264 23.5037 30.2324 22.9491L31.3111 22.8476C31.3604 23.2961 31.542 23.7188 31.8317 24.0595C32.1215 24.4003 32.5058 24.6431 32.9335 24.7558C33.8333 24.3456 34.8102 24.1417 35.7953 24.1586C35.9357 24.1586 36.0701 24.1735 36.2075 24.1825C35.5086 22.9166 34.401 21.9381 33.0738 21.4142C29.8348 20.1301 27.6512 22.1219 27.1513 22.8088C25.9469 24.4572 26.7186 26.0161 27.3062 27.0284L26.3415 27.9243C25.5014 27.1819 24.9376 26.1662 24.7454 25.0485C23.5089 25.4278 21.8485 25.3471 20.9189 23.7256L21.7959 23.1104C22.781 23.8629 24.345 23.7972 25.0875 22.8685C25.2644 22.4579 25.4881 22.0699 25.754 21.7128C26.1761 21.1433 26.6854 20.6472 27.2624 20.2435C24.839 19.5686 21.4159 19.6791 19.3462 21.0349C18.7869 21.3667 18.3266 21.8477 18.0145 22.4264C17.7024 23.0051 17.5504 23.6596 17.5747 24.3198C17.5747 25.386 18.3932 27.0702 19.4953 27.333L18.8551 28.6022C18.1519 28.4358 17.5136 28.0583 17.0222 27.5182L16.0721 28.7545L15.1221 28.2827L16.0517 25.7981C15.8998 25.3155 15.8219 24.8118 15.8207 24.3049C15.8231 23.9036 15.8642 23.5035 15.9435 23.1104C13.0203 24.3437 11.5762 26.3953 11.0471 28.2707C10.6407 29.7131 10.7986 31.0151 11.4651 31.7139C11.9942 32.2694 12.8039 32.4008 13.5669 32.35L15.6132 30.7225L16.2855 31.3018L15.6775 33.3385C15.9961 34.3747 17.0397 34.9093 18.9428 34.533C19.0414 33.7085 19.36 32.9276 19.8636 32.2754C20.2329 31.7324 20.7215 31.2857 21.2902 30.9703L22.2899 28.22L23.2897 28.1752L23.1815 30.4298C24.8624 30.2536 26.742 30.603 28.4931 30.3343L28.8146 31.5288C26.248 32.7412 23.62 30.7643 21.2375 33.3713C20.381 34.309 20.7084 35.1243 21.2375 35.9455C22.0005 37.1191 23.4329 36.4144 24.8975 35.9455C27.1162 35.2527 28.7269 34.751 31.7642 35.0048C31.0392 33.5983 31.1094 31.8991 32.0799 30.0297L33.5094 30.606C32.5067 32.9682 33.445 34.3359 34.094 34.9391C35.0967 35.8709 36.6051 36.1516 37.6019 35.5902C37.9837 35.3748 38.312 35.0726 38.5613 34.7071C38.8107 34.3416 38.9744 33.9223 39.0402 33.4818C39.1059 33.076 39.101 32.6615 39.0255 32.2574H39.0285Z" fill="black"/>
<path d="M27.5637 0.473049C27.6563 0.5005 27.7489 0.527951 27.8443 0.556233C28.1522 0.647615 28.4601 0.739475 28.7679 0.831337C28.9899 0.897325 29.2119 0.963282 29.434 1.02921C30.0359 1.20804 30.6377 1.38727 31.2394 1.56659C31.8702 1.75449 32.5012 1.94201 33.1321 2.12958C34.1962 2.44598 35.2602 2.76263 36.3241 3.07946C37.435 3.41026 38.546 3.74089 39.657 4.07131C39.7609 4.1022 39.7609 4.1022 39.8668 4.13372C40.1456 4.21663 40.4244 4.29955 40.7032 4.38246C41.9759 4.76097 43.2486 5.13961 44.5213 5.51828C44.7157 5.57612 44.7157 5.57612 44.914 5.63513C45.6586 5.85669 46.4032 6.07831 47.1478 6.30001C47.374 6.36736 47.6002 6.4347 47.8265 6.50202C48.1347 6.59373 48.4429 6.68551 48.751 6.7773C48.8415 6.80419 48.9319 6.83109 49.025 6.8588C49.3513 6.95605 49.6768 7.05409 50 7.161C50 7.23067 50 7.30033 50 7.37211C49.8867 7.40273 49.8867 7.40273 49.771 7.43396C49.6732 7.46145 49.5755 7.48893 49.4747 7.51725C49.3772 7.54419 49.2797 7.57114 49.1793 7.59889C48.9184 7.66414 48.9184 7.66414 48.8298 7.89989C48.6021 7.92638 48.3742 7.95198 48.1458 7.97241C47.7023 8.02599 47.2828 8.15123 46.8551 8.27594C46.768 8.30063 46.681 8.32533 46.5914 8.35077C46.3799 8.41091 46.1686 8.47197 45.9574 8.53323C45.9574 8.6029 45.9574 8.67256 45.9574 8.74434C45.8872 8.74434 45.817 8.74434 45.7447 8.74434C45.7447 10.2074 45.7447 11.6704 45.7447 13.1777C45.8149 13.2125 45.8851 13.2474 45.9574 13.2833C46.9867 14.2508 46.9867 14.2508 47.0545 15.0447C47.0474 15.6877 46.7113 16.2978 46.2766 16.7666C46.1713 16.8014 46.066 16.8363 45.9574 16.8722C46.3467 18.618 46.8383 20.3361 47.3203 22.0585C47.4289 22.4469 47.5368 22.8355 47.6446 23.2241C47.6782 23.3433 47.7118 23.4625 47.7463 23.5853C47.7769 23.6957 47.8075 23.8061 47.839 23.9198C47.8661 24.0166 47.8931 24.1134 47.921 24.2131C47.9787 24.4722 47.9787 24.4722 47.9787 24.8944C47.6979 24.9293 47.417 24.9641 47.1277 25C47.0882 24.9129 47.0487 24.8258 47.008 24.7361C46.7699 24.2952 46.4806 23.9149 46.1702 23.5222C46.1 23.5919 46.0298 23.6615 45.9574 23.7333C45.9574 23.5243 45.9574 23.3153 45.9574 23.1C45.9433 23.2207 45.9292 23.3414 45.9146 23.4657C45.8957 23.6231 45.8767 23.7805 45.8577 23.9378C45.8485 24.0175 45.8392 24.0972 45.8297 24.1793C45.7567 24.7769 45.7567 24.7769 45.6383 24.8944C45.4411 24.9037 45.2435 24.9057 45.0461 24.9048C44.9265 24.9044 44.8068 24.9041 44.6836 24.9037C44.5576 24.9028 44.4316 24.902 44.3019 24.901C44.1755 24.9006 44.0491 24.9001 43.9189 24.8996C43.6055 24.8983 43.2921 24.8966 42.9787 24.8944C42.8194 24.5783 42.919 24.3548 42.9872 24.0105C43.0007 23.9415 43.0142 23.8725 43.028 23.8014C43.0575 23.6512 43.0872 23.5011 43.1172 23.3511C43.1648 23.1133 43.2115 22.8754 43.258 22.6375C43.3569 22.1318 43.457 21.6263 43.5572 21.1208C43.6729 20.5365 43.7881 19.9521 43.9024 19.3675C43.9484 19.1336 43.995 18.8999 44.0417 18.6662C44.0701 18.5218 44.0984 18.3774 44.1267 18.233C44.1516 18.1075 44.1765 17.982 44.2021 17.8527C44.2532 17.5196 44.2653 17.2085 44.2553 16.8722C44.15 16.8373 44.0447 16.8025 43.9362 16.7666C43.7691 16.5596 43.7691 16.5596 43.6037 16.3048C43.521 16.1795 43.521 16.1795 43.4367 16.0516C43.1696 15.5994 43.1393 15.1682 43.1915 14.6555C43.3728 14.1265 43.6698 13.8573 44.1036 13.5257C44.1537 13.4805 44.2038 13.4354 44.2553 13.3888C44.2553 13.3191 44.2553 13.2495 44.2553 13.1777C44.3255 13.1777 44.3957 13.1777 44.4681 13.1777C44.4681 11.854 44.4681 10.5304 44.4681 9.16657C43.5951 9.24493 43.5951 9.24493 42.7757 9.42945C42.6635 9.46159 42.5513 9.49372 42.4357 9.52683C42.3217 9.56048 42.2077 9.59412 42.0903 9.62879C41.9287 9.67532 41.9287 9.67532 41.764 9.72279C41.3663 9.83764 40.9691 9.95411 40.5718 10.0704C39.681 10.3295 38.7902 10.5885 37.8723 10.8555C37.8372 13.8512 37.8021 16.8468 37.766 19.9333C37.5202 19.8636 37.2745 19.794 37.0213 19.7222C36.9862 19.6525 36.9511 19.5829 36.9149 19.5111C36.8315 19.4784 36.7481 19.4458 36.6622 19.4121C36.3785 19.2982 36.2667 19.2021 36.0638 18.9833C35.7007 18.6488 35.3807 18.6075 34.8936 18.5611C34.8936 18.4914 34.8936 18.4217 34.8936 18.35C34.6614 18.2605 34.4287 18.1728 34.1955 18.0861C34.0659 18.0371 33.9363 17.9881 33.8028 17.9376C33.3998 17.8209 33.0767 17.8009 32.6596 17.8222C32.6596 17.7525 32.6596 17.6828 32.6596 17.6111C31.4589 17.3469 30.2676 17.1012 29.0426 16.9777C28.9512 16.9685 28.8598 16.9592 28.7656 16.9497C27.6577 16.8507 26.5503 16.851 25.4388 16.8524C25.337 16.8525 25.2352 16.8526 25.1304 16.8527C22.1078 16.859 19.0866 17.0352 16.2766 18.2444C16.2766 18.3141 16.2766 18.3837 16.2766 18.4555C16.066 18.4903 15.8553 18.5252 15.6383 18.5611C15.6383 18.6307 15.6383 18.7004 15.6383 18.7722C15.3232 19.0015 15.0525 19.1771 14.6809 19.3C14.6457 19.3696 14.6106 19.4393 14.5745 19.5111C14.5086 19.522 14.4428 19.5328 14.375 19.5441C14.0485 19.6489 13.9813 19.8512 13.8298 20.1444C13.6879 20.074 13.5461 20.0037 13.4043 19.9333C13.4043 16.9725 13.4043 14.0116 13.4043 10.961C12.6152 10.5695 11.7534 10.3691 10.9043 10.1496C10.7782 10.1157 10.6522 10.0819 10.5224 10.0471C9.86926 9.87769 9.29238 9.75595 8.61702 9.7999C8.61702 9.73024 8.61702 9.66057 8.61702 9.58879C4.3516 8.49154 4.3516 8.49154 0 7.37211C0 7.30244 0 7.23278 0 7.161C1.43391 6.75841 2.86787 6.35599 4.30186 5.9537C4.41094 5.9231 4.52002 5.8925 4.63241 5.86097C7.19474 5.14215 9.7573 4.42418 12.3209 3.70981C12.4222 3.68157 12.5235 3.65334 12.6278 3.62425C13.6262 3.34601 14.6246 3.068 15.6232 2.79089C16.1059 2.65695 16.5885 2.52287 17.0711 2.3887C17.1644 2.36278 17.2576 2.33686 17.3537 2.31015C18.5706 1.9716 19.7855 1.62666 20.9984 1.27432C21.2295 1.20727 21.4607 1.1405 21.692 1.07386C21.7658 1.05258 21.8397 1.0313 21.9157 1.00937C22.0611 0.967491 22.2065 0.925621 22.3519 0.883768C22.8243 0.747565 23.2956 0.608212 23.7668 0.468256C24.005 0.399494 24.2432 0.330842 24.4814 0.262323C24.586 0.230371 24.6905 0.19842 24.7983 0.1655C24.8958 0.137964 24.9934 0.110428 25.0939 0.082058C25.1766 0.0576704 25.2593 0.0332827 25.3446 0.00815609C26.0865 -0.0549377 26.8598 0.262138 27.5637 0.473049ZM45.5319 8.53323C45.5319 10.1007 45.5319 11.6683 45.5319 13.2833C45.567 13.2833 45.6021 13.2833 45.6383 13.2833C45.6383 11.7158 45.6383 10.1482 45.6383 8.53323C45.6032 8.53323 45.5681 8.53323 45.5319 8.53323ZM44.5745 8.8499C44.5745 10.3129 44.5745 11.7759 44.5745 13.2833C44.6096 13.2833 44.6447 13.2833 44.6809 13.2833C44.6809 11.8203 44.6809 10.3572 44.6809 8.8499C44.6457 8.8499 44.6106 8.8499 44.5745 8.8499Z" fill="#101010"/>
</svg>
